<svg width="12" height="13" viewBox="0 0 12 13" fill="none" xmlns="http://www.w3.org/2000/svg">
<g id="Synchronize" clip-path="url(#clip0_636_724)">
<path id="Vector" d="M6 0.0119629L4 2.01196L6 4.01196V2.51196C7.9295 2.51196 9.5 4.08196 9.5 6.01196C9.5 6.45196 9.41463 6.87201 9.26562 7.26001L10.0234 8.01685C10.3259 7.41235 10.5 6.73296 10.5 6.01196C10.5 3.53096 8.4815 1.51196 6 1.51196V0.0119629ZM1.97656 4.00708C1.67406 4.61158 1.5 5.29096 1.5 6.01196C1.5 8.49296 3.5185 10.512 6 10.512V12.012L8 10.012L6 8.01196V9.51196C4.0705 9.51196 2.5 7.94196 2.5 6.01196C2.5 5.57196 2.58537 5.15192 2.73438 4.76392L1.97656 4.00708Z" fill="white"/>
</g>
<defs>
<clipPath id="clip0_636_724">
<rect width="12" height="12" fill="white" transform="translate(0 0.0119629)"/>
</clipPath>
</defs>
</svg>
