<svg width="18" height="18" viewBox="0 0 18 18" fill="none" xmlns="http://www.w3.org/2000/svg">
<path d="M7.84899 1.60804C6.84867 1.60672 5.86269 1.84591 4.97417 2.30545C4.08565 2.76499 3.32063 3.43141 2.7436 4.24853C2.16657 5.06564 1.79444 6.00951 1.65859 7.00057C1.52273 7.99162 1.62713 9.00081 1.96298 9.94307C2.29883 10.8853 2.85629 11.733 3.58837 12.4147C4.32045 13.0964 5.20569 13.5921 6.16946 13.86C7.13324 14.128 8.1473 14.1603 9.12617 13.9542C10.105 13.7481 11.02 13.3098 11.794 12.676L15.52 16.402C15.5772 16.4631 15.6461 16.512 15.7226 16.5459C15.799 16.5798 15.8816 16.598 15.9652 16.5993C16.0489 16.6007 16.1319 16.5852 16.2095 16.5539C16.287 16.5225 16.3575 16.4758 16.4166 16.4167C16.4758 16.3575 16.5224 16.2871 16.5538 16.2095C16.5852 16.132 16.6007 16.0489 16.5993 15.9653C16.5979 15.8816 16.5798 15.7991 16.5459 15.7226C16.512 15.6461 16.463 15.5772 16.402 15.52L12.676 11.794C13.4247 10.8806 13.8986 9.7733 14.0424 8.60102C14.1862 7.42873 13.994 6.23971 13.4882 5.17242C12.9824 4.10512 12.1839 3.20346 11.1855 2.57243C10.1871 1.94139 9.03006 1.60695 7.84899 1.60804ZM7.84899 2.85604C8.83632 2.85604 9.80147 3.14881 10.6224 3.69734C11.4433 4.24587 12.0832 5.02551 12.461 5.93768C12.8388 6.84985 12.9377 7.85358 12.7451 8.82193C12.5525 9.79028 12.077 10.6798 11.3789 11.3779C10.6807 12.0761 9.79124 12.5515 8.82288 12.7441C7.85453 12.9367 6.85081 12.8379 5.93864 12.46C5.02647 12.0822 4.24682 11.4424 3.6983 10.6214C3.14977 9.80051 2.85699 8.83536 2.85699 7.84804C2.85581 7.19215 2.98412 6.54247 3.23457 5.93628C3.48502 5.33009 3.85268 4.7793 4.31647 4.31552C4.78026 3.85173 5.33104 3.48407 5.93723 3.23362C6.54343 2.98316 7.1931 2.85485 7.84899 2.85604Z" fill="#354052"/>
</svg>
